<?xml version="1.0" encoding="UTF-8"?>
<svg version="1.1" xmlns="http://www.w3.org/2000/svg" width="711" height="547">
<path d="M0 0 C5.57101797 3.98346972 10.56711561 8.54712796 15.53515625 13.24609375 C18.27632219 15.78803632 21.08770142 18.15776838 24 20.5 C27.76588189 23.53107567 31.38079756 26.66331577 34.9375 29.9375 C38.51542463 33.23081699 42.15289666 36.38401321 45.9375 39.4375 C50.69345419 43.27469031 55.19254801 47.33135101 59.6875 51.46875 C62.37487634 53.88128104 65.12715444 56.1700621 67.9375 58.4375 C72.69345419 62.27469031 77.19254801 66.33135101 81.6875 70.46875 C84.37487634 72.88128104 87.12715444 75.1700621 89.9375 77.4375 C94.69489668 81.27585414 99.19533918 85.33372359 103.69140625 89.47265625 C106.35625166 91.86457297 109.08581825 94.13004884 111.875 96.375 C116.40565092 100.02916653 120.69499687 103.86754584 124.93920898 107.84472656 C128.30147211 110.97195451 131.80058274 113.81509451 135.4375 116.625 C139.80512441 120.17211694 143.138049 123.3287585 144.4375 128.9375 C144.81570967 133.3835648 143.92462973 136.73474855 141.25 140.3125 C138.18716398 143.17114695 136.54099721 144.21335343 132.4375 144.9375 C125.72782914 144.70207295 122.62187892 143.17920185 117.8125 138.625 C116.59025499 137.52298122 115.36758686 136.42143157 114.14453125 135.3203125 C113.52916504 134.75602539 112.91379883 134.19173828 112.27978516 133.61035156 C109.41099422 131.00540119 106.4540665 128.50721535 103.5 126 C96.75009291 120.2230099 90.03807194 114.40247183 83.32861328 108.57861328 C80.19964706 105.86328783 77.06846844 103.1505162 73.9375 100.4375 C72.68748926 99.35417906 71.43748926 98.27084572 70.1875 97.1875 C69.56875 96.65125 68.95 96.115 68.3125 95.5625 C17.6875 51.6875 17.6875 51.6875 15.81103516 50.06103516 C14.5661759 48.98228691 13.32106038 47.90383433 12.07568359 46.82568359 C8.86982006 44.04961899 5.66913437 41.26790786 2.4765625 38.4765625 C-13.1024239 23.88859838 -13.1024239 23.88859838 -33.3359375 19.6484375 C-43.63809998 20.57139152 -50.30728946 27.64718323 -57.68457031 34.26123047 C-60.77884273 37.02322663 -63.92349092 39.72661168 -67.0625 42.4375 C-68.32305167 43.53109441 -69.58346867 44.62484406 -70.84375 45.71875 C-74.97875324 49.30241947 -79.13514994 52.86082805 -83.29296875 56.41796875 C-87.56388843 60.0746438 -91.81656669 63.75185479 -96.0625 67.4375 C-101.45504979 72.1184556 -106.86696436 76.77585664 -112.29296875 81.41796875 C-116.56388843 85.0746438 -120.81656669 88.75185479 -125.0625 92.4375 C-130.45504979 97.1184556 -135.86696436 101.77585664 -141.29296875 106.41796875 C-145.56388843 110.0746438 -149.81656669 113.75185479 -154.0625 117.4375 C-159.45504979 122.1184556 -164.86696436 126.77585664 -170.29296875 131.41796875 C-174.56388843 135.0746438 -178.81656669 138.75185479 -183.0625 142.4375 C-188.45504979 147.1184556 -193.86696436 151.77585664 -199.29296875 156.41796875 C-203.56388874 160.07464407 -207.81653077 163.75189583 -212.0625 167.4375 C-216.9042571 171.63960295 -221.75642901 175.82898879 -226.625 180 C-227.19138184 180.48605713 -227.75776367 180.97211426 -228.34130859 181.47290039 C-231.35313667 184.05526251 -234.37498055 186.62479495 -237.41015625 189.1796875 C-238.04236084 189.71456787 -238.67456543 190.24944824 -239.32592773 190.80053711 C-240.52921092 191.81823852 -241.73555635 192.83233517 -242.94555664 193.84204102 C-247.58897352 197.77898491 -251.97454638 201.87440436 -253.5625 207.9375 C-253.49272926 211.59505394 -253.49272926 211.59505394 -252.5625 214.9375 C-247.11599087 218.56850608 -241.43594204 218.08308416 -235.09765625 218.11328125 C-233.2272022 218.13647258 -231.35675944 218.16058964 -229.48632812 218.18554688 C-226.55241235 218.22067624 -223.61891519 218.25002779 -220.68481445 218.26342773 C-217.84275448 218.27892945 -215.00189707 218.31913968 -212.16015625 218.36328125 C-211.2881105 218.36137283 -210.41606476 218.35946442 -209.51759338 218.35749817 C-204.10733277 218.46573841 -200.69185252 219.1050214 -196.5625 222.9375 C-193.94900651 227.97713815 -193.12893048 232.09782418 -193.19068909 237.78672791 C-193.18495224 238.92654368 -193.18495224 238.92654368 -193.1790995 240.08938605 C-193.16986045 242.61959563 -193.1817766 245.14925138 -193.19360352 247.67944336 C-193.19113402 249.49998704 -193.1872941 251.3205293 -193.18218994 253.1410675 C-193.17386565 257.05393657 -193.17464789 260.96666003 -193.18237495 264.87952995 C-193.19397601 271.06986578 -193.1817803 277.26001501 -193.16575623 283.45033264 C-193.12959372 298.82476687 -193.12333185 314.19919653 -193.12585449 329.57366943 C-193.12756625 341.5256297 -193.12043129 353.4774372 -193.08587593 365.42935473 C-193.06909644 371.57983672 -193.07086409 377.72994586 -193.08669865 383.88042629 C-193.09250248 387.71036138 -193.08174322 391.54012029 -193.06645203 395.37002373 C-193.06273126 397.14209408 -193.06581806 398.91419421 -193.07632256 400.68623734 C-193.45232345 414.33034813 -193.45232345 414.33034813 -186.74609375 425.77734375 C-186.16988281 426.13957031 -185.59367187 426.50179688 -185 426.875 C-184.42121094 427.25527344 -183.84242188 427.63554687 -183.24609375 428.02734375 C-180.28975027 429.62555264 -177.81633803 430.06306815 -174.52222377 430.06811053 C-173.69556725 430.07179124 -172.86891073 430.07547195 -172.01720402 430.07926419 C-170.65249719 430.07773019 -170.65249719 430.07773019 -169.26022053 430.0761652 C-168.29100925 430.07900742 -167.32179797 430.08184964 -166.32321665 430.08477798 C-163.04427083 430.09316351 -159.76536016 430.09439621 -156.48640442 430.09571838 C-154.12442858 430.10028111 -151.76245356 430.1052807 -149.4004795 430.11068195 C-144.24903684 430.12145424 -139.09759904 430.12911653 -133.94614792 430.13408089 C-126.28607898 430.1414794 -118.6260272 430.15456079 -110.96596835 430.16882664 C-98.08173098 430.19265987 -85.19749056 430.21185449 -72.31324196 430.22842598 C-59.55207718 430.24485424 -46.79091809 430.26333162 -34.02976036 430.28455925 C-33.23697622 430.28587686 -32.44419208 430.28719446 -31.62738418 430.288552 C-27.60140532 430.29525388 -23.57542652 430.30199249 -19.54944774 430.30874526 C8.98322399 430.35653691 37.51590102 430.3997137 66.04858398 430.44018555 C93.77156968 430.47951942 121.49455098 430.52093806 149.2175293 430.56518555 C150.0717347 430.56654808 150.9259401 430.56791061 151.80603052 430.56931442 C160.38413648 430.58299953 168.96224237 430.5967271 177.54034821 430.61048577 C195.01569338 430.638514 212.49103899 430.66625885 229.96638489 430.6938324 C230.76991268 430.6951006 231.57344048 430.6963688 232.4013176 430.69767542 C286.08003794 430.78236346 339.75876834 430.86036857 393.4375 430.9375 C393.4375 439.8475 393.4375 448.7575 393.4375 457.9375 C338.75992456 457.98868317 284.0823475 458.03661603 229.40475464 458.06452942 C228.59553612 458.06494359 227.78631761 458.06535776 226.95257732 458.06578448 C209.3661678 458.07476316 191.77975803 458.08307371 174.19334788 458.09069599 C165.5690027 458.09443801 156.94465758 458.09832767 148.3203125 458.10229492 C147.46208554 458.1026872 146.60385858 458.10307948 145.71962475 458.10348364 C117.90097234 458.11626816 90.08233821 458.13880244 62.26369687 458.16639166 C33.67692986 458.19469119 5.09017296 458.21315674 -23.49660782 458.21924497 C-27.53409645 458.22010944 -31.57158505 458.22108635 -35.60907364 458.22213173 C-36.80102958 458.22243513 -36.80102958 458.22243513 -38.01706545 458.22274467 C-50.80960907 458.2262901 -63.60212142 458.24020506 -76.39465229 458.2579961 C-89.25481335 458.27565996 -102.11494341 458.2824034 -114.97511618 458.27800413 C-122.61599843 458.27572206 -130.25676718 458.28180864 -137.89762894 458.29989263 C-143.60329189 458.31247406 -149.30886057 458.30937992 -155.01452602 458.30019668 C-157.32290172 458.29892759 -159.63128695 458.3027466 -161.93964384 458.31214955 C-165.07729488 458.32418816 -168.21439104 458.31769964 -171.35203362 458.30664349 C-172.24826211 458.31452453 -173.1444906 458.32240557 -174.06787753 458.33052543 C-186.62199509 458.23056137 -198.27050847 453.33371175 -207.375 444.6875 C-219.15234878 432.10954432 -221.01753971 419.30893334 -220.90307617 402.73779297 C-220.90222872 401.0122021 -220.90270735 399.28661014 -220.90440369 397.5610199 C-220.90526044 392.90257362 -220.88768674 388.24436155 -220.86668181 383.58596945 C-220.84786144 378.70797015 -220.84616036 373.82996482 -220.84260559 368.95193481 C-220.83330083 359.72635688 -220.80870836 350.50088625 -220.77855712 341.27535546 C-220.74496416 330.7674789 -220.72851481 320.25959707 -220.71347082 309.75168014 C-220.68215736 288.14689365 -220.6294275 266.5422036 -220.5625 244.9375 C-221.52961914 244.96368408 -222.49673828 244.98986816 -223.49316406 245.0168457 C-227.13842927 245.10848341 -230.78359662 245.16515311 -234.4296875 245.2121582 C-235.99691988 245.23704765 -237.56403935 245.27097282 -239.13085938 245.31469727 C-251.65030776 245.65489967 -261.73627915 244.54355984 -271.5 235.8125 C-278.34573072 228.38283218 -281.91471247 219.26101575 -281.70703125 209.16015625 C-280.94599034 197.45658114 -276.21313591 186.02882756 -267.5625 177.9375 C-264.90839562 175.68321262 -262.21141615 173.49461991 -259.48828125 171.32421875 C-256.58175475 168.95320715 -253.81878692 166.48085488 -251.0625 163.9375 C-246.61522888 159.84398909 -242.01532537 156.01307501 -237.3125 152.21875 C-234.48150422 149.87031032 -231.76866402 147.42840098 -229.0625 144.9375 C-224.61522888 140.84398909 -220.01532537 137.01307501 -215.3125 133.21875 C-212.48150422 130.87031032 -209.76866402 128.42840098 -207.0625 125.9375 C-202.5926488 121.82371091 -197.97205107 117.96662703 -193.24609375 114.15234375 C-190.61541443 111.98117173 -188.08307576 109.73508643 -185.5625 107.4375 C-182.16651318 104.34194804 -178.70078469 101.38598793 -175.125 98.5 C-170.351097 94.63924863 -165.82861572 90.56312925 -161.3125 86.40625 C-157.75065771 83.20868704 -154.03684167 80.22361657 -150.3125 77.21875 C-147.48150422 74.87031032 -144.76866402 72.42840098 -142.0625 69.9375 C-137.61522888 65.84398909 -133.01532537 62.01307501 -128.3125 58.21875 C-125.48150422 55.87031032 -122.76866402 53.42840098 -120.0625 50.9375 C-115.5926488 46.82371091 -110.97205107 42.96662703 -106.24609375 39.15234375 C-103.61541443 36.98117173 -101.08307576 34.73508643 -98.5625 32.4375 C-95.16651318 29.34194804 -91.70078469 26.38598793 -88.125 23.5 C-84.35226871 20.45218341 -80.74085046 17.30064484 -77.1875 14 C-55.41487752 -5.9401193 -27.40537255 -18.05454296 0 0 Z " fill="#FE9101" transform="translate(296.5625,43.0625)"/>
</svg>
