<?xml version="1.0" encoding="UTF-8"?>
<svg version="1.1" xmlns="http://www.w3.org/2000/svg" width="1574" height="789">
<path d="M0 0 C1.21042969 0.58394531 1.21042969 0.58394531 2.4453125 1.1796875 C9.81253601 5.18309834 15.92252568 10.86853648 22.16796875 16.39013672 C24.57792151 18.50783775 27.01952349 20.58701318 29.46264648 22.66625977 C34.09710565 26.6107093 38.68583733 30.59120032 43.1875 34.6875 C46.52227114 37.71712868 49.93287639 40.60608092 53.4375 43.4375 C58.211403 47.29825137 62.73388428 51.37437075 67.25 55.53125 C69.93737634 57.94378104 72.68965444 60.2325621 75.5 62.5 C80.25739668 66.33835414 84.75783918 70.39622359 89.25390625 74.53515625 C91.91875166 76.92707297 94.64831825 79.19254884 97.4375 81.4375 C101.97236161 85.09506264 106.25536183 88.94617027 110.51708984 92.91162109 C114.62779276 96.71398807 118.92275584 100.24270592 123.28515625 103.75390625 C127.05512 106.872941 130.62559589 110.19218126 134.21875 113.51171875 C137.90818971 116.81252366 141.77494985 119.86344226 145.6875 122.89453125 C148.79633676 125.7250431 150.64381388 128.28257547 151.50390625 132.4296875 C151.62034252 137.28896108 151.327031 140.26547057 148.125 144.0625 C144.92901782 147.34339958 142.82731344 148.18072886 138.25 148.3125 C137.40953125 148.34988281 136.5690625 148.38726562 135.703125 148.42578125 C129.44543774 147.44010508 124.61407321 142.07894056 120 138 C118.67353742 136.83813016 117.34670575 135.67668157 116.01953125 134.515625 C115.35131348 133.92974609 114.6830957 133.34386719 113.99462891 132.74023438 C110.91340565 130.05198966 107.79971385 127.40222581 104.6875 124.75 C100.67621135 121.32597335 96.71343287 117.86271809 92.8125 114.3125 C89.47772886 111.28287132 86.06712361 108.39391908 82.5625 105.5625 C77.788597 101.70174863 73.26611572 97.62562925 68.75 93.46875 C66.06262366 91.05621896 63.31034556 88.7674379 60.5 86.5 C55.74404581 82.66280969 51.24495199 78.60614899 46.75 74.46875 C44.06262366 72.05621896 41.31034556 69.7674379 38.5 67.5 C33.74260332 63.66164586 29.24216082 59.60377641 24.74609375 55.46484375 C21.21025138 52.29113602 17.52074191 49.33373459 13.8203125 46.35546875 C10.7550134 43.79539208 7.84868359 41.10656133 4.9375 38.375 C-4.8654816 29.23378298 -12.72779666 23.36538087 -26.4375 23.63671875 C-35.78719657 24.59014176 -41.62089984 30.12127749 -48.21484375 36.390625 C-50.88940974 38.89638949 -53.64217259 41.20723377 -56.5 43.5 C-60.28460334 46.55348679 -63.92207537 49.70668301 -67.5 53 C-71.94727112 57.09351091 -76.54717463 60.92442499 -81.25 64.71875 C-84.08099578 67.06718968 -86.79383598 69.50909902 -89.5 72 C-93.9698512 76.11378909 -98.59044893 79.97087297 -103.31640625 83.78515625 C-105.94708557 85.95632827 -108.47942424 88.20241357 -111 90.5 C-114.39598682 93.59555196 -117.86171531 96.55151207 -121.4375 99.4375 C-125.24087503 102.51336588 -128.90082652 105.68753166 -132.5 109 C-136.9698512 113.11378909 -141.59044893 116.97087297 -146.31640625 120.78515625 C-149.80693429 123.66598507 -153.13274068 126.70934403 -156.4765625 129.7578125 C-159.05082358 132.04515904 -161.69289489 134.21548271 -164.375 136.375 C-168.92780507 140.05571847 -173.23417411 143.92648648 -177.5168457 147.91137695 C-181.62760957 151.71385014 -185.92266523 155.24263299 -190.28515625 158.75390625 C-193.10673495 161.0883059 -195.80590712 163.51990598 -198.5 166 C-202.9698512 170.11378909 -207.59044893 173.97087297 -212.31640625 177.78515625 C-215.79485851 180.6560186 -219.10970018 183.68804656 -222.44140625 186.7265625 C-226.07965124 189.9593237 -229.85779763 193.00813104 -233.65234375 196.0546875 C-235.96072797 197.89324251 -235.96072797 197.89324251 -237.69140625 199.7578125 C-239 201 -239 201 -241 201 C-241.268125 201.53625 -241.53625 202.0725 -241.8125 202.625 C-242.69215034 204.38430068 -243.640975 206.1093798 -244.625 207.8125 C-246.24230409 211.56170493 -246.60965491 213.96103623 -246 218 C-241.60437502 221.83351036 -236.86967187 221.42492317 -231.3515625 221.40625 C-230.42080902 221.41708618 -229.49005554 221.42792236 -228.53109741 221.43908691 C-225.56232742 221.47328826 -222.59394089 221.48892546 -219.625 221.5 C-215.72098792 221.51461463 -211.81782524 221.54839417 -207.9140625 221.59375 C-207.02530426 221.59072876 -206.13654602 221.58770752 -205.22085571 221.58459473 C-199.731003 221.65034539 -195.77108244 222.1809608 -191 225 C-187.31347076 229.48849673 -186.42141958 233.02006841 -186.50120544 238.6842804 C-186.49582089 239.43851404 -186.49043634 240.19274768 -186.48488861 240.96983689 C-186.47165622 243.48714315 -186.48674175 246.0034675 -186.50170898 248.52075195 C-186.49788442 250.32967577 -186.49226422 252.13859655 -186.48498535 253.94750977 C-186.47304164 257.83860779 -186.47351894 261.72943594 -186.48357964 265.62053871 C-186.49915262 271.77749446 -186.48545317 277.93417359 -186.46754456 284.09111023 C-186.43672835 296.05363679 -186.43522283 308.01607878 -186.43719482 319.9786377 C-186.43858766 335.19450586 -186.42819432 350.41030867 -186.3886171 365.62612885 C-186.37370698 371.74200011 -186.37393643 377.85762595 -186.38609493 383.97350085 C-186.39081675 387.78487808 -186.38326903 391.59616206 -186.37255096 395.40752411 C-186.37015148 397.16949978 -186.37285655 398.93149127 -186.38115883 400.69344902 C-186.55429896 414.91617976 -186.55429896 414.91617976 -181.125 427.875 C-176.6093594 432.3906406 -172.13825817 434.12094649 -165.84834933 434.13061053 C-165.02231236 434.13429124 -164.19627538 434.13797195 -163.34520698 434.14176419 C-162.44123813 434.14074153 -161.53726928 434.13971886 -160.60590744 434.1386652 C-159.63891906 434.14150742 -158.67193069 434.14434964 -157.67563963 434.14727798 C-154.41027716 434.15565117 -151.14495004 434.15689525 -147.87957764 434.15821838 C-145.52498835 434.16278195 -143.17039987 434.16778166 -140.81581235 434.17318195 C-135.00738495 434.18536643 -129.19896421 434.19291444 -123.39052706 434.19854873 C-116.43530354 434.20555699 -109.48009372 434.21832954 -102.52487924 434.23132664 C-89.68839218 434.2551524 -76.85190206 434.27435017 -64.01540375 434.29092598 C-51.30251395 434.30735724 -38.58962986 434.32583588 -25.87674713 434.34705925 C-24.69183307 434.34903566 -24.69183307 434.34903566 -23.48298136 434.351052 C-19.47139154 434.35775392 -15.45980179 434.36449253 -11.44821206 434.37124526 C16.97853018 434.41903011 45.40527774 434.46220887 73.83203125 434.50268555 C101.45117581 434.5420228 129.07031597 434.58344226 156.68945312 434.62768555 C157.54053889 434.62904808 158.39162466 434.63041061 159.2685009 434.63181442 C167.81532044 434.6454996 176.36213991 434.65922715 184.90895933 434.67298577 C202.320389 434.7010136 219.73181912 434.72875852 237.14324951 434.7563324 C238.3441188 434.7582347 238.3441188 434.7582347 239.56924808 434.76017542 C293.04615824 434.84485582 346.52307849 434.92286445 400 435 C400 443.91 400 452.82 400 462 C345.46010959 462.06825535 290.92021629 462.1321646 236.3802948 462.16937256 C235.57290019 462.16992479 234.76550559 462.17047702 233.93364447 462.17104598 C216.38617223 462.18301801 198.83869952 462.19409868 181.29122614 462.20426132 C172.6857685 462.2092506 164.08031098 462.21443682 155.47485352 462.21972656 C154.61851368 462.2202496 153.76217384 462.22077263 152.87988431 462.22131152 C125.13069538 462.23835249 97.38153906 462.26839443 69.63236988 462.30518888 C41.11303984 462.3429358 12.59372785 462.36754562 -15.92562675 462.37565996 C-19.95512585 462.37681256 -23.98462489 462.3781151 -28.01412392 462.37950897 C-28.80717579 462.37977866 -29.60022767 462.38004836 -30.41731142 462.38032622 C-43.1758001 462.38505042 -55.93423293 462.40359545 -68.69269884 462.42732814 C-81.52379144 462.45090028 -94.35482877 462.45986612 -107.18594225 462.45400551 C-114.8062327 462.45096657 -122.42632058 462.45904374 -130.04657439 462.48319017 C-135.74223626 462.50000254 -141.4377307 462.49581991 -147.13339714 462.48359558 C-149.43375332 462.48190733 -151.73412665 462.48696576 -154.03444912 462.49953273 C-169.91281529 462.58122001 -182.9316411 462.06290469 -196 452 C-196.74121094 451.48566406 -197.48242188 450.97132813 -198.24609375 450.44140625 C-198.82488281 449.96574219 -199.40367187 449.49007813 -200 449 C-200 448.34 -200 447.68 -200 447 C-200.99 446.67 -201.98 446.34 -203 446 C-211.42782748 436.33609115 -214.12949789 424.21064041 -214.12025452 411.70436096 C-214.12110894 411.00417609 -214.12196337 410.30399121 -214.12284368 409.58258861 C-214.1244804 407.25498356 -214.11900697 404.92745185 -214.11352539 402.59985352 C-214.1132431 400.92396547 -214.11340207 399.2480773 -214.1139679 397.57218933 C-214.11425424 393.03554756 -214.10838377 388.49893234 -214.10139394 383.96229672 C-214.09513335 379.21639723 -214.09455446 374.4704971 -214.09336853 369.72459412 C-214.09026319 360.74333207 -214.08206055 351.76208223 -214.07201904 342.78082556 C-214.06083315 332.55353179 -214.05534121 322.32623743 -214.05032361 312.09893906 C-214.03987727 291.06595257 -214.02229327 270.03297705 -214 249 C-214.91177002 249.02094727 -215.82354004 249.04189453 -216.76293945 249.06347656 C-220.1979414 249.13230293 -223.63219388 249.18211096 -227.06762695 249.21972656 C-228.54463378 249.23964487 -230.02156384 249.26679007 -231.49829102 249.30175781 C-244.26042845 249.59603565 -255.35388489 248.13842484 -265 239 C-272.87955255 230.69065367 -274.57261354 221.60812141 -274.28125 210.390625 C-273.15907665 196.86220186 -265.90327126 186.82716776 -256 178 C-253.3005153 175.73643209 -250.57010895 173.51854129 -247.8203125 171.31640625 C-244.95614967 168.96398442 -242.22514219 166.5116339 -239.5 164 C-235.05272888 159.90648909 -230.45282537 156.07557501 -225.75 152.28125 C-222.91900422 149.93281032 -220.20616402 147.49090098 -217.5 145 C-213.0301488 140.88621091 -208.40955107 137.02912703 -203.68359375 133.21484375 C-201.05291443 131.04367173 -198.52057576 128.79758643 -196 126.5 C-192.60401318 123.40444804 -189.13828469 120.44848793 -185.5625 117.5625 C-180.788597 113.70174863 -176.26611572 109.62562925 -171.75 105.46875 C-168.18815771 102.27118704 -164.47434167 99.28611657 -160.75 96.28125 C-157.91900422 93.93281032 -155.20616402 91.49090098 -152.5 89 C-148.05272888 84.90648909 -143.45282537 81.07557501 -138.75 77.28125 C-135.91900422 74.93281032 -133.20616402 72.49090098 -130.5 70 C-126.05272888 65.90648909 -121.45282537 62.07557501 -116.75 58.28125 C-113.91900422 55.93281032 -111.20616402 53.49090098 -108.5 51 C-104.05272888 46.90648909 -99.45282537 43.07557501 -94.75 39.28125 C-91.91900422 36.93281032 -89.20616402 34.49090098 -86.5 32 C-82.03201113 27.8879249 -77.41548299 24.03056301 -72.6875 20.22265625 C-70.02188307 18.01809806 -67.4784817 15.72143779 -64.9375 13.375 C-47.50497737 -2.38290235 -22.48881474 -11.13931945 0 0 Z " fill="#FE9101" transform="translate(276,156)"/>
<path d="M0 0 C10.89 0 21.78 0 33 0 C35.0045803 5.34554746 36.93100102 10.66778272 38.70800781 16.08642578 C38.96054825 16.85204834 39.21308868 17.6176709 39.47328186 18.40649414 C40.30152003 20.91890204 41.12738106 23.43208384 41.953125 25.9453125 C42.53730194 27.71967209 43.12159364 29.4939939 43.70599365 31.26828003 C44.93084933 34.98824524 46.15457217 38.70858054 47.37744141 42.42919922 C48.92313083 47.13183363 50.47122552 51.83367178 52.02007294 56.53526688 C62.78302878 89.21015971 62.78302878 89.21015971 67.359375 103.4921875 C67.6405719 104.36424835 67.9217688 105.2363092 68.21148682 106.13479614 C70 111.76010121 70 111.76010121 70 114 C70.66 114 71.32 114 72 114 C72.13317627 113.39043457 72.26635254 112.78086914 72.40356445 112.15283203 C74.7187058 102.24427161 77.95771452 92.65609971 81.15231323 83.003479 C82.93885575 77.60429799 84.71120604 72.20045996 86.484375 66.796875 C86.85211533 65.67713287 87.21985565 64.55739075 87.59873962 63.40371704 C91.77647517 50.66492177 95.86100029 37.89648312 99.9375 25.125 C100.46299942 23.47899811 100.46299942 23.47899811 100.99911499 21.79974365 C102.92850895 15.7560574 102.92850895 15.7560574 104.855896 9.71173096 C105.1250885 8.86729431 105.39428101 8.02285767 105.67163086 7.15283203 C105.90538925 6.41904327 106.13914764 5.68525452 106.37998962 4.92922974 C106.90916764 3.28263476 107.45307182 1.64078455 108 0 C118.56 0 129.12 0 140 0 C138.87510005 7.87429963 138.87510005 7.87429963 137.5480957 11.71801758 C137.25245728 12.58460999 136.95681885 13.45120239 136.65222168 14.34405518 C136.32999634 15.26821228 136.007771 16.19236938 135.67578125 17.14453125 C135.33800659 18.12999939 135.00023193 19.11546753 134.65222168 20.13079834 C133.92428915 22.25260283 133.19357461 24.37345453 132.46035767 26.49343872 C130.50309534 32.15291532 128.5657924 37.81923417 126.625 43.484375 C126.23157913 44.63075943 125.83815826 45.77714386 125.43281555 46.95826721 C121.82792156 57.47172093 118.30937727 68.01272975 114.8125 78.5625 C109.49936986 94.57325139 104.08680144 110.54840486 98.61645508 126.50610352 C98.33894913 127.31582108 98.06144318 128.12553864 97.77552795 128.95979309 C97.24138817 130.5178684 96.70684619 132.0758059 96.17185974 133.6335907 C94.31463389 139.05049632 92.51085533 144.48350487 90.74853516 149.93212891 C90 152 90 152 89 153 C86.1883662 153.08861992 83.40141745 153.11522355 80.58984375 153.09765625 C79.74780899 153.0962413 78.90577423 153.09482635 78.03822327 153.09336853 C75.33794665 153.08775263 72.63775172 153.07519748 69.9375 153.0625 C68.11132932 153.05748705 66.28515734 153.05292379 64.45898438 153.04882812 C59.97262458 153.03777804 55.48632616 153.02050279 51 153 C50.42838135 151.27728882 50.42838135 151.27728882 49.84521484 149.51977539 C43.11295069 129.23920246 36.36301295 108.96551901 29.4375 88.75 C23.74032508 72.11120252 18.06480427 55.46512 12.41488552 38.8102169 C11.14536525 35.06796014 9.87479796 31.32606718 8.60153198 27.58508301 C7.39709888 24.0461986 6.19557126 20.50634115 4.99625587 16.96571922 C4.54795996 15.6438896 4.09861846 14.32241409 3.64819908 13.00130653 C3.0284394 11.18289878 2.41278997 9.36309168 1.79736328 7.54321289 C1.44876251 6.51660049 1.10016174 5.4899881 0.74099731 4.43226624 C0 2 0 2 0 0 Z " fill="#FEFEFE" transform="translate(156,373)"/>
<path d="M0 0 C9.9 0 19.8 0 30 0 C30 20.13 30 40.26 30 61 C31.65 59.35 33.3 57.7 35 56 C45.16227735 46.06492804 54.53428865 43.73612174 68.35644531 43.75341797 C80.57649329 43.91484821 88.03029886 47.16597389 96.75 55.6875 C101.64544889 62.11586723 103.1973339 69.9034173 104.10107422 77.77124023 C104.18628263 78.51046187 104.27149105 79.24968351 104.35928154 80.01130581 C105.23879578 88.291418 105.25256633 96.53045262 105.1953125 104.84765625 C105.19156826 106.48245569 105.18872799 108.11725742 105.18673706 109.75205994 C105.17921138 113.99173515 105.15966248 118.23126663 105.1373291 122.47088623 C105.11662777 126.82236793 105.10768419 131.17387356 105.09765625 135.52539062 C105.07640245 144.01699942 105.04131515 152.50846511 105 161 C95.1 161 85.2 161 75 161 C74.970271 157.76147217 74.970271 157.76147217 74.93994141 154.45751953 C74.87278251 147.29293434 74.79514796 140.12848955 74.71247292 132.96406746 C74.6627056 128.62386341 74.61637521 124.28368142 74.578125 119.94335938 C74.54102331 115.74813877 74.49459886 111.55311203 74.44193649 107.35805893 C74.42352382 105.76427515 74.40836842 104.17045003 74.39665604 102.57660294 C74.6816623 87.25768262 74.6816623 87.25768262 70 73 C67.60470331 71.67518454 67.60470331 71.67518454 65 71 C63.515 70.505 63.515 70.505 62 70 C54.6478142 69.47047969 46.56983779 69.1250714 40 73 C39.505 74.485 39.505 74.485 39 76 C38.34 76 37.68 76 37 76 C32.35662312 87.40824608 30.3978349 97.65108949 30.390625 109.92578125 C30.37560204 111.40937567 30.35886646 112.89295363 30.34051514 114.37651062 C30.29728989 118.23478062 30.27694372 122.0928253 30.26177979 125.95129395 C30.23855983 130.60563252 30.18618384 135.25972808 30.13883972 139.91387177 C30.07053161 146.94264361 30.03867553 153.97072203 30 161 C20.1 161 10.2 161 0 161 C0 107.87 0 54.74 0 0 Z " fill="#FEFEFE" transform="translate(475,365)"/>
<path d="M0 0 C10.21646473 9.27678989 14.38826027 21.92290634 15.13623047 35.46679688 C15.5704601 49.71815958 15.5704601 49.71815958 14 56 C-11.08 56 -36.16 56 -62 56 C-57.89420331 71.84033634 -57.89420331 71.84033634 -47.125 81.4375 C-39.29354117 84.50371524 -28.59408445 84.50594756 -20.8125 81.3125 C-15.33290159 78.35393356 -11.75481747 73.86735598 -8 69 C-4.35889821 69.55909966 -1.85599747 70.46968107 1.20703125 72.50390625 C1.95791016 72.99697266 2.70878906 73.49003906 3.48242188 73.99804688 C4.63581055 74.77245117 4.63581055 74.77245117 5.8125 75.5625 C6.60076172 76.08263672 7.38902344 76.60277344 8.20117188 77.13867188 C10.13892853 78.41876566 12.07152677 79.7059808 14 81 C10.97206749 91.52130083 3.18999436 98.68314454 -5.96484375 104.1796875 C-20.57141489 112.10483699 -41.03582766 111.50878704 -56.54296875 106.9609375 C-70.05453898 102.14092971 -80.5667109 93.08864514 -86.76171875 80.02734375 C-94.22714757 61.77590104 -94.90412595 39.78431539 -87.55859375 21.390625 C-82.10558965 9.16910607 -73.58590836 -1.1482978 -60.9765625 -6.21484375 C-41.24234595 -13.06091147 -17.17145033 -13.08300978 0 0 Z M-52.6875 18.0625 C-57.33752831 23.96929272 -59.7643674 29.5862044 -61 37 C-45.49 37 -29.98 37 -14 37 C-14.71517148 26.28345372 -14.71517148 26.28345372 -20 18 C-29.52626039 10.5695169 -43.07754389 10.6874174 -52.6875 18.0625 Z " fill="#FEFEFE" transform="translate(1028,419)"/>
<path d="M0 0 C0.96421875 -0.01611328 1.9284375 -0.03222656 2.921875 -0.04882812 C15.71300441 -0.05740127 27.99081113 3.64665688 37.4375 12.5 C48.02514561 23.81589637 50.14747072 38.00559567 49.875 53 C49.86984375 54.17755859 49.8646875 55.35511719 49.859375 56.56835938 C49.7799836 65.1575164 49.7799836 65.1575164 48.625 66.3125 C46.28246218 66.40742722 43.96953896 66.43809791 41.62670898 66.42602539 C40.52921326 66.42624443 40.52921326 66.42624443 39.4095459 66.4264679 C36.98003216 66.42576867 34.55059417 66.41797585 32.12109375 66.41015625 C30.44100486 66.4082921 28.76091543 66.40686819 27.08082581 66.40586853 C22.65026357 66.40204307 18.2197339 66.39221256 13.78918457 66.38116455 C9.27157024 66.37095103 4.75395066 66.36637104 0.23632812 66.36132812 C-8.63412893 66.35059031 -17.50456176 66.33351356 -26.375 66.3125 C-25.94190675 68.37573963 -25.49685038 70.43647008 -25.046875 72.49609375 C-24.8003418 73.64392334 -24.55380859 74.79175293 -24.29980469 75.97436523 C-22.55940747 82.25642732 -19.39739143 87.40709873 -13.75 90.8125 C-5.28553506 94.57448442 5.43454066 94.86749237 14.1875 91.75 C20.05755149 89.01520064 23.12534666 84.56198 26.625 79.3125 C30.26610179 79.87159966 32.76900253 80.78218107 35.83203125 82.81640625 C36.58291016 83.30947266 37.33378906 83.80253906 38.10742188 84.31054688 C39.26081055 85.08495117 39.26081055 85.08495117 40.4375 85.875 C41.22576172 86.39513672 42.01402344 86.91527344 42.82617188 87.45117188 C44.76392853 88.73126566 46.69652677 90.0184808 48.625 91.3125 C47.43921512 99.77603957 40.41789023 106.18723666 34.125 111.5234375 C20.47162474 121.29413417 2.67150848 121.4699543 -13.375 119.3125 C-26.91552608 116.48981035 -38.69180188 110.04215922 -47.19921875 98.9296875 C-58.41867701 81.35159421 -59.04152175 59.57768781 -55.3125 39.625 C-51.71655987 25.52466331 -42.76485616 13.73557709 -30.375 6.3125 C-20.53347687 1.45193124 -10.88980026 -0.03610676 0 0 Z M-19.1875 30 C-22.99304236 35.76267843 -25.375 40.33004011 -25.375 47.3125 C-9.865 47.3125 5.645 47.3125 21.625 47.3125 C20.43933027 35.78543534 20.43933027 35.78543534 13.9140625 27.0390625 C3.25111612 20.69528427 -10.12887664 21.34398213 -19.1875 30 Z " fill="#FEFEFE" transform="translate(355.375,408.6875)"/>
<path d="M0 0 C11.91954246 9.18798064 17.66266054 24.88682102 19.59375 39.2734375 C21.39851542 58.67466576 17.84002989 76.35226701 6.31640625 92.28125 C-3.91979054 103.95890766 -18.81882126 108.75832491 -33.875 109.78125 C-50.39423547 109.78125 -66.38857003 106.15957688 -78.875 94.78125 C-92.62912952 79.99722189 -94.57819083 61.91574849 -94.15234375 42.69921875 C-93.60167965 28.10090788 -88.73816699 14.73690506 -78.875 3.78125 C-57.68096153 -15.56982861 -23.26314909 -15.12104691 0 0 Z M-56.25 21.84375 C-61.2506243 28.44514072 -63.35793607 36.63749307 -63.875 44.78125 C-63.9265625 45.51472656 -63.978125 46.24820313 -64.03125 47.00390625 C-64.43374594 57.31786476 -62.75102973 68.73649001 -55.875 76.78125 C-51.42213425 81.57949038 -46.76449264 83.45518475 -40.265625 84 C-31.53556315 84.28939432 -24.90026622 82.58343303 -18.41015625 76.56640625 C-11.61857641 68.66881849 -10.39492199 56.77934049 -10.625 46.7421875 C-11.52977876 36.02621403 -13.66899073 26.38387725 -21.75 18.90625 C-31.93866935 11.97795484 -47.50610255 12.72730554 -56.25 21.84375 Z " fill="#FEFEFE" transform="translate(687.875,419.21875)"/>
<path d="M0 0 C9.57 0 19.14 0 29 0 C29.01981934 2.18931152 29.03963867 4.37862305 29.06005859 6.63427734 C29.12721157 13.89864608 29.20484629 21.16287622 29.28752708 28.42708397 C29.33729856 32.82782261 29.38362899 37.22853944 29.421875 41.62939453 C29.45897134 45.88296829 29.5053945 50.13635064 29.55806351 54.38975906 C29.57647897 56.00587198 29.59163338 57.62202573 29.60334396 59.23820114 C29.2412723 73.69535428 29.2412723 73.69535428 33.875 87 C38.95368739 91.77994107 43.84025317 91.3618319 50.578125 91.25 C56.19344245 90.8397485 59.28041601 89.39966139 63.6875 85.8125 C69.48067973 78.76674086 71.09147733 72.03286894 71.20532227 63.0065918 C71.21522186 62.32311172 71.22512146 61.63963165 71.23532104 60.93544006 C71.26675406 58.69006746 71.29162095 56.44467374 71.31640625 54.19921875 C71.33699153 52.63694223 71.3579884 51.07467109 71.37937927 49.5124054 C71.43443751 45.41076014 71.48391808 41.30906599 71.53222656 37.20733643 C71.58256061 33.01773757 71.6381844 28.82820928 71.69335938 24.63867188 C71.80074208 16.42583943 71.90174163 8.21294668 72 0 C81.9 0 91.8 0 102 0 C102 37.95 102 75.9 102 115 C92.43 115 82.86 115 73 115 C72.67 109.72 72.34 104.44 72 99 C71.01 100.36125 70.02 101.7225 69 103.125 C62.8090536 111.04741833 55.70242607 116.07125736 45.6171875 117.46875 C32.0617105 118.69347482 20.77944411 117.93559183 10 109 C2.32764638 101.71126406 -0.10828014 91.24210684 -0.42259598 80.99098492 C-0.47836274 76.48628933 -0.44170859 71.98502971 -0.390625 67.48046875 C-0.38314876 65.52607304 -0.37746238 63.57166974 -0.37347412 61.61726379 C-0.35832654 56.51592689 -0.31914064 51.41505798 -0.2746582 46.31390381 C-0.23346864 41.09149503 -0.2154129 35.86900937 -0.1953125 30.64648438 C-0.15263396 20.43075268 -0.08237531 10.21548879 0 0 Z " fill="#FEFEFE" transform="translate(722,411)"/>
<path d="M0 0 C2.08096871 1.6011001 3.38483516 2.88357711 5 5 C4.75163569 8.96555014 2.46881595 10.81095449 -0.3125 13.4375 C-2.90445632 15.91889894 -5.11953681 18.16270287 -7.25 21.0625 C-9 23 -9 23 -11.31640625 23.33203125 C-14.67706873 22.91622876 -16.07199425 21.7433435 -18.6875 19.625 C-25.44595147 14.64667637 -32.65013017 13.24092092 -41 14 C-47.50000973 15.45760344 -47.50000973 15.45760344 -52 20 C-52.50007794 23.45786015 -52.50007794 23.45786015 -52 27 C-46.13276684 34.22638579 -35.53635388 35.1604601 -26.875 37 C-14.66589012 39.62120052 -5.50709076 43.32167001 3.375 52.4375 C8.60445473 60.68394784 10.40517095 70.58439091 8.31640625 80.12109375 C5.3250174 90.85782135 0.64270828 98.21437503 -9 104 C-25.82731027 112.64105122 -45.39049984 111.43271813 -63 106 C-71.5673555 102.81866822 -78.98036739 97.94087617 -85 91 C-85.79736328 89.09082031 -85.79736328 89.09082031 -86 87 C-84.86010742 85.20068359 -84.86010742 85.20068359 -83.10546875 83.3984375 C-82.16670898 82.41617188 -82.16670898 82.41617188 -81.20898438 81.4140625 C-80.54189453 80.74117188 -79.87480469 80.06828125 -79.1875 79.375 C-78.53201172 78.694375 -77.87652344 78.01375 -77.20117188 77.3125 C-74.82454775 74.8507358 -72.41953375 72.41953375 -70 70 C-66.24077055 70.27641393 -64.37270182 72.26998871 -61.75 74.8125 C-54.30653831 81.65508917 -47.6764649 84.12962317 -37.625 84.25 C-36.33851563 84.27578125 -35.05203125 84.3015625 -33.7265625 84.328125 C-29.7725301 83.9799712 -27.42778736 82.92117875 -24 81 C-23.34 81 -22.68 81 -22 81 C-21.25329472 76.87062984 -20.63445179 73.26535918 -21.8125 69.1875 C-28.6777073 62.3222927 -41.27304748 60.99362206 -50.3671875 58.8203125 C-61.52466679 55.98500012 -70.21843007 51.42096533 -77.1875 42.0625 C-82.26706415 33.47978816 -82.53239199 23.06799862 -80.125 13.53515625 C-76.07714585 2.97611565 -70.12863934 -1.84124716 -60.16015625 -6.73828125 C-41.00954239 -14.38432362 -16.71789397 -12.00338584 0 0 Z " fill="#FEFEFE" transform="translate(921,419)"/>
<path d="M0 0 C9.57 0 19.14 0 29 0 C29.02505615 3.87113525 29.0501123 7.74227051 29.07592773 11.73071289 C29.15939397 24.51912294 29.24803277 37.30749275 29.33933926 50.09584904 C29.39457333 57.84961029 29.44803893 65.60337614 29.49731445 73.35717773 C29.54027682 80.11685592 29.5865847 86.87650157 29.63687855 93.63612932 C29.66338269 97.21394747 29.68823278 100.79175957 29.70907402 104.36961555 C29.7324255 108.36763413 29.76324731 112.36556216 29.79467773 116.36352539 C29.80331093 118.1351429 29.80331093 118.1351429 29.81211853 119.94255066 C29.86086058 125.39519143 30.03454233 130.62894429 31 136 C34.00778521 137.00259507 36.53820647 137.30314642 39.6875 137.5625 C40.68136719 137.64628906 41.67523438 137.73007812 42.69921875 137.81640625 C43.45847656 137.87699219 44.21773438 137.93757812 45 138 C46.35709504 145.73059495 47.31918373 153.14453364 47 161 C37.90670361 165.0267955 27.44453169 164.77855318 18 162 C10.51367027 158.72146787 5.27302955 154.55082617 2.15430737 146.93478584 C-0.26715008 139.62293538 -0.40590102 132.75924154 -0.34057617 125.10498047 C-0.33972817 123.73406493 -0.34020842 122.36314803 -0.34190369 120.99223328 C-0.34275832 117.3006725 -0.3252198 113.60940897 -0.30418181 109.91791677 C-0.28532539 106.04890069 -0.28365755 102.17987648 -0.28010559 98.31082153 C-0.2708113 90.99769217 -0.24623328 83.68469865 -0.21605712 76.37162888 C-0.18243127 68.0402567 -0.1660066 59.70887776 -0.15097082 51.37745452 C-0.1196811 34.25154448 -0.06470212 17.12582136 0 0 Z " fill="#FEFEFE" transform="translate(419,365)"/>
<path d="M0 0 C18 0 18 0 24 3 C26.15164703 6.22747055 26.27245079 7.20505639 26.25 10.9375 C26.25515625 11.79214844 26.2603125 12.64679687 26.265625 13.52734375 C25.85348398 17.36389179 24.86028256 19.29153201 21.875 21.75 C21.25625 22.1625 20.6375 22.575 20 23 C20.5775 23.99902344 21.155 24.99804688 21.75 26.02734375 C22.50011259 27.33066437 23.25010648 28.63405332 24 29.9375 C24.3815625 30.59685547 24.763125 31.25621094 25.15625 31.93554688 C28 36.88671875 28 36.88671875 28 38 C24.39699031 38.86383634 21.56627257 39.10625169 18 38 C14.68675727 34.17336343 10 28.2483596 10 23 C9.34 23 8.68 23 8 23 C8 27.95 8 32.9 8 38 C5.36 38 2.72 38 0 38 C0 25.46 0 12.92 0 0 Z M8 7 C8 9.97 8 12.94 8 16 C12.70353479 16.38514787 12.70353479 16.38514787 17 14.8125 C18.23646577 12.96009234 18.23646577 12.96009234 17.8125 10.375 C17.25355766 7.83447997 17.25355766 7.83447997 15 7 C12.6670134 6.95977609 10.33293334 6.95679753 8 7 Z " fill="#FEFEFE" transform="translate(721,577)"/>
<path d="M0 0 C3.3 0 6.6 0 10 0 C11.85765778 4.92727764 13.70889448 9.85690107 15.55419922 14.78881836 C16.1829684 16.4665641 16.81349302 18.14365303 17.44580078 19.82006836 C18.35390167 22.22860281 19.25568147 24.63942195 20.15625 27.05078125 C20.44060913 27.80087967 20.72496826 28.55097809 21.01794434 29.32380676 C22.14221978 32.34972338 23 34.74428721 23 38 C20.03 38 17.06 38 14 38 C13.01 35.69 12.02 33.38 11 31 C7.04 31 3.08 31 -1 31 C-1.99 33.31 -2.98 35.62 -4 38 C-6.97 38 -9.94 38 -13 38 C-12.27638157 33.57205508 -10.82701658 29.48463316 -9.27734375 25.29296875 C-8.87993736 24.20487663 -8.87993736 24.20487663 -8.47450256 23.09480286 C-7.63223577 20.79110656 -6.78494734 18.48929494 -5.9375 16.1875 C-5.36359921 14.62056466 -4.79002787 13.05350862 -4.21679688 11.48632812 C-2.81500906 7.65614382 -1.4087164 3.82764115 0 0 Z M4 14 C3.34 16.97 2.68 19.94 2 23 C3.98 23 5.96 23 8 23 C7.50351065 18.53159589 7.31012244 17.31012244 4 14 Z " fill="#FEFEFE" transform="translate(1055,577)"/>
<path d="M0 0 C2.97 0 5.94 0 9 0 C12.46200629 7.51449496 15.38991161 15.17618455 18.25 22.9375 C18.93835938 24.78311523 18.93835938 24.78311523 19.640625 26.66601562 C20.07375 27.83712891 20.506875 29.00824219 20.953125 30.21484375 C21.34661133 31.27823975 21.74009766 32.34163574 22.14550781 33.43725586 C23 36 23 36 23 38 C20.03 38 17.06 38 14 38 C11 32.25 11 32.25 11 30 C6.71 30 2.42 30 -2 30 C-2.33 31.98 -2.66 33.96 -3 36 C-3.33 36.66 -3.66 37.32 -4 38 C-7.3 38 -10.6 38 -14 38 C-12.49137544 33.71222946 -10.97962836 29.42557706 -9.46508789 25.13989258 C-8.95122557 23.68446024 -8.43818959 22.22873585 -7.92602539 20.77270508 C-7.18597634 18.66929399 -6.44287501 16.56698182 -5.69921875 14.46484375 C-5.47409103 13.82288559 -5.24896332 13.18092743 -5.01701355 12.51951599 C-3.50689426 8.26297115 -1.81385624 4.13298436 0 0 Z M4 14 C3.01 16.97 2.02 19.94 1 23 C3.31 23 5.62 23 8 23 C7.01 20.03 6.02 17.06 5 14 C4.67 14 4.34 14 4 14 Z " fill="#FEFEFE" transform="translate(815,577)"/>
<path d="M0 0 C8.58 0 17.16 0 26 0 C26 2.31 26 4.62 26 7 C20.39 7 14.78 7 9 7 C9 9.97 9 12.94 9 16 C14.28 16 19.56 16 25 16 C25 18.31 25 20.62 25 23 C19.72 23 14.44 23 9 23 C9 25.64 9 28.28 9 31 C14.61 31 20.22 31 26 31 C26 33.31 26 35.62 26 38 C17.42 38 8.84 38 0 38 C0 25.46 0 12.92 0 0 Z " fill="#FEFEFE" transform="translate(1134,577)"/>
<path d="M0 0 C-0.8125 2.9375 -0.8125 2.9375 -2 6 C-5 7 -5 7 -8 6 C-9.56118428 5.93259135 -11.1250252 5.91485544 -12.6875 5.9375 C-13.49574219 5.94652344 -14.30398438 5.95554687 -15.13671875 5.96484375 C-15.75160156 5.97644531 -16.36648438 5.98804688 -17 6 C-17.33 7.32 -17.66 8.64 -18 10 C-16.2365625 10.6496875 -16.2365625 10.6496875 -14.4375 11.3125 C-12.95791636 11.8739023 -11.47875496 12.43641856 -10 13 C-9.34515625 13.23976563 -8.6903125 13.47953125 -8.015625 13.7265625 C-4.2561462 15.18858203 -1.83001016 16.33997968 0 20 C1.09286563 24.13727702 1.10701237 26.59870361 0 30.75 C-1.99429847 33.99073502 -3.30555198 35.34198709 -6.91796875 36.56640625 C-14.46603472 38.13832993 -20.94824249 36.86158276 -28 34 C-27.50168276 30.31245243 -26.89932357 28.39509338 -24 26 C-23.01 26.515625 -22.02 27.03125 -21 27.5625 C-16.68506709 29.45083465 -13.55658228 28.87934044 -9 28 C-8.67 26.35 -8.34 24.7 -8 23 C-8.72445312 22.82984375 -9.44890625 22.6596875 -10.1953125 22.484375 C-17.26712692 20.71170685 -22.79279277 19.31081085 -27 13 C-27.71069348 8.58708929 -27.54534353 5.02524583 -25.4375 1.0625 C-18.28422853 -4.99026816 -8.07392091 -3.55602293 0 0 Z " fill="#FEFEFE" transform="translate(986,579)"/>
<path d="M0 0 C8.25 0 16.5 0 25 0 C25 2.31 25 4.62 25 7 C19.39 7 13.78 7 8 7 C8 9.97 8 12.94 8 16 C13.28 16 18.56 16 24 16 C24 18.31 24 20.62 24 23 C18.72 23 13.44 23 8 23 C8 25.64 8 28.28 8 31 C13.94 31 19.88 31 26 31 C26 33.31 26 35.62 26 38 C17.42 38 8.84 38 0 38 C0 25.46 0 12.92 0 0 Z " fill="#FEFEFE" transform="translate(918,577)"/>
<path d="M0 0 C8.25 0 16.5 0 25 0 C25 2.31 25 4.62 25 7 C19.39 7 13.78 7 8 7 C8 9.97 8 12.94 8 16 C13.28 16 18.56 16 24 16 C24 18.31 24 20.62 24 23 C18.72 23 13.44 23 8 23 C8 25.64 8 28.28 8 31 C13.94 31 19.88 31 26 31 C26 33.31 26 35.62 26 38 C17.42 38 8.84 38 0 38 C0 25.46 0 12.92 0 0 Z " fill="#FEFEFE" transform="translate(763,577)"/>
<path d="M0 0 C9.57 0 19.14 0 29 0 C29 2.31 29 4.62 29 7 C25.7 7 22.4 7 19 7 C19 17.23 19 27.46 19 38 C16.03 38 13.06 38 10 38 C10 27.77 10 17.54 10 7 C6.7 7 3.4 7 0 7 C0 4.69 0 2.38 0 0 Z " fill="#FEFEFE" transform="translate(1091,577)"/>
<path d="M0 0 C9.57 0 19.14 0 29 0 C29 2.31 29 4.62 29 7 C25.7 7 22.4 7 19 7 C19 17.23 19 27.46 19 38 C16.36 38 13.72 38 11 38 C11 27.77 11 17.54 11 7 C7.37 7 3.74 7 0 7 C0 4.69 0 2.38 0 0 Z " fill="#FEFEFE" transform="translate(1000,577)"/>
<path d="M0 0 C2.64 0 5.28 0 8 0 C8 10.23 8 20.46 8 31 C13.28 31 18.56 31 24 31 C24 33.31 24 35.62 24 38 C16.08 38 8.16 38 0 38 C0 25.46 0 12.92 0 0 Z " fill="#FEFEFE" transform="translate(852,577)"/>
</svg>
